<svg xmlns="http://www.w3.org/2000/svg" width="48" height="48" viewBox="0 0 48 48">
<path fill="#283940" d="M9 7h31l4 4v33H9l-5-5V12z"/><path fill="#d6c9a9" d="M10 9h29l3 3v30H10l-4-4V13z"/><path fill="#f2e8cd" d="M10 9h29l3 3H11l-5 5v-4z"/><path fill="#688080" d="M9 13h4v26H9z"/>
<path fill="#83583e" d="m22 4 3 0 14 21-5 3z"/><path fill="#e3b978" d="m24 4 13 20-3 2-13-20z"/><path fill="#f5d69d" d="m24 4 13 20-2 1-13-20z"/><path fill="#34434b" d="m34 26 5-1-2 7z"/><path fill="#77664b" d="M18 29h10v2H18zM18 34h17v2H18z"/>
</svg>
