<svg xmlns="http://www.w3.org/2000/svg" width="72" height="72" viewBox="0 0 24 24" shape-rendering="crispEdges">
<path fill="#0a090b" d="M11 2h2v2h1v2h1v2h2v3h2v3h2v3h2v4H1v-4h2v-3h2v-3h2V8h2V6h1V4h1z"/>
<path fill="#c29a5b" d="M11 5h2v3h-2v3H9v3H7v3H5v2H3v-1h1v-3h2v-3h2V9h2V6h1z"/>
<path fill="#6e5434" d="M13 6h1v3h2v3h2v3h2v3h1v1h-8z"/>
<path fill="#9a7249" d="M11 10v9H5v-2h2v-3h2v-3h2z"/>
<path fill="#0a090b" d="M11 11h2v3h1v2h2v3H8v-3h2v-2h1z"/>
<path fill="#bfb096" d="M11 4h2v2h-2zM2 20h3v1H2zM19 20h3v1h-3z"/>
</svg>
