<svg xmlns="http://www.w3.org/2000/svg" width="960" height="860" viewBox="0 580 960 860"><rect x="0" y="580" width="960" height="860" fill="#7ba150"/><path d="M300 940 Q490 910 750 940 L750 1220 Q550 1310 300 1200 Z" fill="#c3b79b"/><polyline points="480,250 470,560 570,730 540,900 500,1050 500,1260 480,1460 480,1640" fill="none" stroke="#d6bf83" stroke-width="144" stroke-linejoin="round" stroke-linecap="round"/><polyline points="470,560 275,570 200,560" fill="none" stroke="#d6bf83" stroke-width="88" stroke-linejoin="round" stroke-linecap="round"/><polyline points="470,560 700,590 790,560" fill="none" stroke="#d6bf83" stroke-width="88" stroke-linejoin="round" stroke-linecap="round"/><polyline points="550,740 170,800" fill="none" stroke="#d6bf83" stroke-width="88" stroke-linejoin="round" stroke-linecap="round"/><polyline points="550,780 780,820 870,840" fill="none" stroke="#d6bf83" stroke-width="88" stroke-linejoin="round" stroke-linecap="round"/><polyline points="540,980 450,990 360,950" fill="none" stroke="#d6bf83" stroke-width="88" stroke-linejoin="round" stroke-linecap="round"/><polyline points="500,1260 200,1420 110,1440" fill="none" stroke="#d6bf83" stroke-width="88" stroke-linejoin="round" stroke-linecap="round"/><polyline points="500,1320 650,1450 740,1430" fill="none" stroke="#d6bf83" stroke-width="88" stroke-linejoin="round" stroke-linecap="round"/><polyline points="480,1460 300,1600 110,1650" fill="none" stroke="#d6bf83" stroke-width="64" stroke-linejoin="round" stroke-linecap="round"/><polyline points="480,1460 660,1600 850,1650" fill="none" stroke="#d6bf83" stroke-width="64" stroke-linejoin="round" stroke-linecap="round"/></svg>